<?xml version="1.0" encoding="UTF-8" standalone="no"?>
<!DOCTYPE svg PUBLIC "-//W3C//DTD SVG 1.1//EN"
 "http://www.w3.org/Graphics/SVG/1.1/DTD/svg11.dtd">
<!-- Generated by graphviz version 2.43.0 (0)
 -->
<!-- Title: automata_0 Pages: 1 -->
<svg width="186pt" height="224pt"
 viewBox="0.00 0.00 186.29 224.00" xmlns="http://www.w3.org/2000/svg" xmlns:xlink="http://www.w3.org/1999/xlink">
<g id="graph0" class="graph" transform="scale(1 1) rotate(0) translate(4 220)">
<title>automata_0</title>
<polygon fill="white" stroke="transparent" points="-4,4 -4,-220 182.29,-220 182.29,4 -4,4"/>
<!-- 0 -->
<g id="node1" class="node">
<title>0</title>
<ellipse fill="lightgrey" stroke="lightgrey" cx="64" cy="-198" rx="18" ry="18"/>
<text text-anchor="middle" x="64" y="-193.8" font-family="Times,serif" font-size="14.00">0</text>
</g>
<!-- 2 -->
<g id="node2" class="node">
<title>2</title>
<ellipse fill="none" stroke="black" cx="22" cy="-108" rx="18" ry="18"/>
<ellipse fill="none" stroke="black" cx="22" cy="-108" rx="22" ry="22"/>
<text text-anchor="middle" x="22" y="-103.8" font-family="Times,serif" font-size="14.00">2</text>
</g>
<!-- 0&#45;&gt;2 -->
<g id="edge1" class="edge">
<title>0&#45;&gt;2</title>
<path fill="none" stroke="black" d="M56.49,-181.27C50.68,-169.1 42.49,-151.93 35.55,-137.39"/>
<polygon fill="black" stroke="black" points="38.67,-135.8 31.2,-128.28 32.35,-138.81 38.67,-135.8"/>
<text text-anchor="middle" x="51.86" y="-150.8" font-family="Times,serif" font-size="14.00">a </text>
</g>
<!-- 1 -->
<g id="node3" class="node">
<title>1</title>
<ellipse fill="none" stroke="black" cx="77" cy="-18" rx="18" ry="18"/>
<text text-anchor="middle" x="77" y="-13.8" font-family="Times,serif" font-size="14.00">1</text>
</g>
<!-- 0&#45;&gt;1 -->
<g id="edge2" class="edge">
<title>0&#45;&gt;1</title>
<path fill="none" stroke="black" d="M69.04,-180.67C72.91,-167.22 77.93,-147.58 80,-130 83.35,-101.54 81.8,-68.7 79.91,-46.16"/>
<polygon fill="black" stroke="black" points="83.37,-45.63 78.97,-35.99 76.4,-46.27 83.37,-45.63"/>
<text text-anchor="middle" x="98.13" y="-103.8" font-family="Times,serif" font-size="14.00">other </text>
</g>
<!-- 2&#45;&gt;2 -->
<g id="edge5" class="edge">
<title>2&#45;&gt;2</title>
<path fill="none" stroke="black" d="M42.58,-116.37C52.84,-117.53 62,-114.74 62,-108 62,-103.68 58.24,-100.99 52.84,-99.91"/>
<polygon fill="black" stroke="black" points="52.67,-96.41 42.58,-99.63 52.48,-103.4 52.67,-96.41"/>
<text text-anchor="middle" x="66.86" y="-103.8" font-family="Times,serif" font-size="14.00">a </text>
</g>
<!-- 2&#45;&gt;1 -->
<g id="edge6" class="edge">
<title>2&#45;&gt;1</title>
<path fill="none" stroke="black" d="M15.7,-86.68C13.68,-76.28 13.2,-63.79 18.73,-54 25.54,-41.96 38.33,-33.61 50.19,-28.1"/>
<polygon fill="black" stroke="black" points="51.9,-31.18 59.79,-24.11 49.21,-24.71 51.9,-31.18"/>
<text text-anchor="middle" x="35.13" y="-56.8" font-family="Times,serif" font-size="14.00">other </text>
</g>
<!-- 1&#45;&gt;2 -->
<g id="edge3" class="edge">
<title>1&#45;&gt;2</title>
<path fill="none" stroke="black" d="M71.13,-35.02C67.2,-44.88 61.56,-57.59 55,-68 51.67,-73.29 47.67,-78.62 43.63,-83.57"/>
<polygon fill="black" stroke="black" points="40.71,-81.59 36.88,-91.47 46.04,-86.14 40.71,-81.59"/>
<text text-anchor="middle" x="67.86" y="-56.8" font-family="Times,serif" font-size="14.00">a </text>
</g>
<!-- 1&#45;&gt;1 -->
<g id="edge4" class="edge">
<title>1&#45;&gt;1</title>
<path fill="none" stroke="black" d="M93.66,-25.38C103.62,-27.02 113,-24.56 113,-18 113,-13.8 109.15,-11.28 103.77,-10.44"/>
<polygon fill="black" stroke="black" points="103.6,-6.94 93.66,-10.62 103.72,-13.94 103.6,-6.94"/>
<text text-anchor="middle" x="129.13" y="-13.8" font-family="Times,serif" font-size="14.00">other </text>
</g>
<!-- Machine: a -->
<g id="node4" class="node">
<title>Machine: a</title>
<text text-anchor="middle" x="139" y="-193.8" font-family="Times,serif" font-size="14.00">Machine: a</text>
</g>
</g>
</svg>
