<?xml version="1.0" encoding="UTF-8" standalone="no"?><svg xmlns="http://www.w3.org/2000/svg" xmlns:xlink="http://www.w3.org/1999/xlink" contentScriptType="application/ecmascript" contentStyleType="text/css" height="283px" preserveAspectRatio="none" style="width:256px;height:283px;" version="1.1" viewBox="0 0 256 283" width="256px" zoomAndPan="magnify"><defs><filter height="300%" id="fm8cg9hnvijcw" width="300%" x="-1" y="-1"><feGaussianBlur result="blurOut" stdDeviation="2.0"/><feColorMatrix in="blurOut" result="blurOut2" type="matrix" values="0 0 0 0 0 0 0 0 0 0 0 0 0 0 0 0 0 0 .4 0"/><feOffset dx="4.0" dy="4.0" in="blurOut2" result="blurOut3"/><feBlend in="SourceGraphic" in2="blurOut3" mode="normal"/></filter></defs><g><!--MD5=[1c729d752f206f4ffd352936364f22f4]
class BlockProcessor--><rect fill="#FEFECE" filter="url(#fm8cg9hnvijcw)" height="48" id="BlockProcessor" style="stroke: #A80036; stroke-width: 1.5;" width="118" x="61" y="8"/><ellipse cx="76" cy="24" fill="#ADD1B2" rx="11" ry="11" style="stroke: #A80036; stroke-width: 1.0;"/><path d="M78.4731,30.1431 Q77.8921,30.4419 77.2529,30.5913 Q76.6138,30.7407 75.9082,30.7407 Q73.4014,30.7407 72.0815,29.0889 Q70.7617,27.437 70.7617,24.3159 Q70.7617,21.1865 72.0815,19.5347 Q73.4014,17.8828 75.9082,17.8828 Q76.6138,17.8828 77.2612,18.0322 Q77.9087,18.1816 78.4731,18.4805 L78.4731,21.2031 Q77.8423,20.6221 77.2488,20.3523 Q76.6553,20.0825 76.0244,20.0825 Q74.6797,20.0825 73.9949,21.1492 Q73.3101,22.2158 73.3101,24.3159 Q73.3101,26.4077 73.9949,27.4744 Q74.6797,28.541 76.0244,28.541 Q76.6553,28.541 77.2488,28.2712 Q77.8423,28.0015 78.4731,27.4204 Z "/><text fill="#000000" font-family="sans-serif" font-size="12" lengthAdjust="spacingAndGlyphs" textLength="86" x="90" y="28.5352">BlockProcessor</text><line style="stroke: #A80036; stroke-width: 1.5;" x1="62" x2="178" y1="40" y2="40"/><line style="stroke: #A80036; stroke-width: 1.5;" x1="62" x2="178" y1="48" y2="48"/><!--MD5=[8df6c8ff76ba76847f391595fb90fdea]
class DiagramBlock--><rect fill="#FEFECE" filter="url(#fm8cg9hnvijcw)" height="48" id="DiagramBlock" style="stroke: #A80036; stroke-width: 1.5;" width="111" x="64.5" y="116"/><ellipse cx="79.5" cy="132" fill="#ADD1B2" rx="11" ry="11" style="stroke: #A80036; stroke-width: 1.0;"/><path d="M81.9731,138.1431 Q81.3921,138.4419 80.7529,138.5913 Q80.1138,138.7407 79.4082,138.7407 Q76.9014,138.7407 75.5815,137.0889 Q74.2617,135.437 74.2617,132.3159 Q74.2617,129.1865 75.5815,127.5347 Q76.9014,125.8828 79.4082,125.8828 Q80.1138,125.8828 80.7612,126.0322 Q81.4087,126.1816 81.9731,126.4805 L81.9731,129.2031 Q81.3423,128.6221 80.7488,128.3523 Q80.1553,128.0825 79.5244,128.0825 Q78.1797,128.0825 77.4949,129.1492 Q76.8101,130.2158 76.8101,132.3159 Q76.8101,134.4077 77.4949,135.4744 Q78.1797,136.541 79.5244,136.541 Q80.1553,136.541 80.7488,136.2712 Q81.3423,136.0015 81.9731,135.4204 Z "/><text fill="#000000" font-family="sans-serif" font-size="12" lengthAdjust="spacingAndGlyphs" textLength="79" x="93.5" y="136.5352">DiagramBlock</text><line style="stroke: #A80036; stroke-width: 1.5;" x1="65.5" x2="174.5" y1="148" y2="148"/><line style="stroke: #A80036; stroke-width: 1.5;" x1="65.5" x2="174.5" y1="156" y2="156"/><!--MD5=[a47f608df33cf1b2c252e40fe50bb216]
class DitaaBlock--><rect fill="#FEFECE" filter="url(#fm8cg9hnvijcw)" height="48" id="DitaaBlock" style="stroke: #A80036; stroke-width: 1.5;" width="92" x="6" y="224"/><ellipse cx="21" cy="240" fill="#ADD1B2" rx="11" ry="11" style="stroke: #A80036; stroke-width: 1.0;"/><path d="M23.4731,246.1431 Q22.8921,246.4419 22.2529,246.5913 Q21.6138,246.7407 20.9082,246.7407 Q18.4014,246.7407 17.0815,245.0889 Q15.7617,243.437 15.7617,240.3159 Q15.7617,237.1865 17.0815,235.5347 Q18.4014,233.8828 20.9082,233.8828 Q21.6138,233.8828 22.2612,234.0322 Q22.9087,234.1816 23.4731,234.4805 L23.4731,237.2031 Q22.8423,236.6221 22.2488,236.3523 Q21.6553,236.0825 21.0244,236.0825 Q19.6797,236.0825 18.9949,237.1492 Q18.3101,238.2158 18.3101,240.3159 Q18.3101,242.4077 18.9949,243.4744 Q19.6797,244.541 21.0244,244.541 Q21.6553,244.541 22.2488,244.2712 Q22.8423,244.0015 23.4731,243.4204 Z "/><text fill="#000000" font-family="sans-serif" font-size="12" lengthAdjust="spacingAndGlyphs" textLength="60" x="35" y="244.5352">DitaaBlock</text><line style="stroke: #A80036; stroke-width: 1.5;" x1="7" x2="97" y1="256" y2="256"/><line style="stroke: #A80036; stroke-width: 1.5;" x1="7" x2="97" y1="264" y2="264"/><!--MD5=[3e4b883855ef57bb465494dd7c4ac7dc]
class PlantUmlBlock--><rect fill="#FEFECE" filter="url(#fm8cg9hnvijcw)" height="48" id="PlantUmlBlock" style="stroke: #A80036; stroke-width: 1.5;" width="112" x="133" y="224"/><ellipse cx="148" cy="240" fill="#ADD1B2" rx="11" ry="11" style="stroke: #A80036; stroke-width: 1.0;"/><path d="M150.4731,246.1431 Q149.8921,246.4419 149.2529,246.5913 Q148.6138,246.7407 147.9082,246.7407 Q145.4014,246.7407 144.0815,245.0889 Q142.7617,243.437 142.7617,240.3159 Q142.7617,237.1865 144.0815,235.5347 Q145.4014,233.8828 147.9082,233.8828 Q148.6138,233.8828 149.2612,234.0322 Q149.9087,234.1816 150.4731,234.4805 L150.4731,237.2031 Q149.8423,236.6221 149.2488,236.3523 Q148.6553,236.0825 148.0244,236.0825 Q146.6797,236.0825 145.9949,237.1492 Q145.3101,238.2158 145.3101,240.3159 Q145.3101,242.4077 145.9949,243.4744 Q146.6797,244.541 148.0244,244.541 Q148.6553,244.541 149.2488,244.2712 Q149.8423,244.0015 150.4731,243.4204 Z "/><text fill="#000000" font-family="sans-serif" font-size="12" lengthAdjust="spacingAndGlyphs" textLength="80" x="162" y="244.5352">PlantUmlBlock</text><line style="stroke: #A80036; stroke-width: 1.5;" x1="134" x2="244" y1="256" y2="256"/><line style="stroke: #A80036; stroke-width: 1.5;" x1="134" x2="244" y1="264" y2="264"/><!--MD5=[b0552178e3adc9f8c93113ea2f4bf563]
reverse link BlockProcessor to DiagramBlock--><path d="M120,76.02 C120,89.58 120,104.04 120,115.68 " fill="none" id="BlockProcessor&lt;-DiagramBlock" style="stroke: #A80036; stroke-width: 1.0;"/><polygon fill="none" points="113,76,120,56,127,76,113,76" style="stroke: #A80036; stroke-width: 1.0;"/><!--MD5=[09f08fe5dcfd9ff1a23fb7b5f4ae8f7f]
reverse link DiagramBlock to DitaaBlock--><path d="M94.25,181.13 C85.04,195.5 74.96,211.21 66.96,223.68 " fill="none" id="DiagramBlock&lt;-DitaaBlock" style="stroke: #A80036; stroke-width: 1.0;"/><polygon fill="none" points="88.55,177.05,105.25,164,100.34,184.61,88.55,177.05" style="stroke: #A80036; stroke-width: 1.0;"/><!--MD5=[374d751c35dd1cdf893f3fa873191a24]
reverse link DiagramBlock to PlantUmlBlock--><path d="M146.12,181.13 C155.48,195.5 165.7,211.21 173.82,223.68 " fill="none" id="DiagramBlock&lt;-PlantUmlBlock" style="stroke: #A80036; stroke-width: 1.0;"/><polygon fill="none" points="140.02,184.58,134.97,164,151.75,176.94,140.02,184.58" style="stroke: #A80036; stroke-width: 1.0;"/><!--MD5=[1756414754fc4e36f1aabbb304b6bb76]
@startuml
class BlockProcessor
class DiagramBlock
class DitaaBlock
class PlantUmlBlock

BlockProcessor <|- - DiagramBlock
DiagramBlock <|- - DitaaBlock
DiagramBlock <|- - PlantUmlBlock
@enduml

PlantUML version 1.2020.06(Sun Apr 05 20:38:32 CST 2020)
(APACHE source distribution)
Java Runtime: Java(TM) SE Runtime Environment
JVM: Java HotSpot(TM) 64-Bit Server VM
Java Version: 13+33
Operating System: Mac OS X
Default Encoding: UTF-8
Language: zh
Country: CN
--></g></svg>