<?xml version="1.0" encoding="UTF-8" standalone="no"?><svg xmlns="http://www.w3.org/2000/svg" xmlns:xlink="http://www.w3.org/1999/xlink" contentScriptType="application/ecmascript" contentStyleType="text/css" height="278px" preserveAspectRatio="none" style="width:740px;height:278px;" version="1.1" viewBox="0 0 740 278" width="740px" zoomAndPan="magnify"><defs><filter height="300%" id="f1scto5r6a9231" width="300%" x="-1" y="-1"><feGaussianBlur result="blurOut" stdDeviation="2.0"/><feColorMatrix in="blurOut" result="blurOut2" type="matrix" values="0 0 0 0 0 0 0 0 0 0 0 0 0 0 0 0 0 0 .4 0"/><feOffset dx="4.0" dy="4.0" in="blurOut2" result="blurOut3"/><feBlend in="SourceGraphic" in2="blurOut3" mode="normal"/></filter></defs><g><line style="stroke: #A80036; stroke-width: 1.0; stroke-dasharray: 5.0,5.0;" x1="38" x2="38" y1="86.4883" y2="266.041"/><line style="stroke: #A80036; stroke-width: 1.0; stroke-dasharray: 5.0,5.0;" x1="125" x2="125" y1="86.4883" y2="266.041"/><line style="stroke: #A80036; stroke-width: 1.0; stroke-dasharray: 5.0,5.0;" x1="226" x2="226" y1="86.4883" y2="266.041"/><line style="stroke: #A80036; stroke-width: 1.0; stroke-dasharray: 5.0,5.0;" x1="372.5" x2="372.5" y1="86.4883" y2="266.041"/><line style="stroke: #A80036; stroke-width: 1.0; stroke-dasharray: 5.0,5.0;" x1="577.5" x2="577.5" y1="86.4883" y2="266.041"/><text fill="#000000" font-family="sans-serif" font-size="14" lengthAdjust="spacingAndGlyphs" textLength="55" x="8" y="83.5352">Request</text><ellipse cx="38.5" cy="13" fill="#FEFECE" filter="url(#f1scto5r6a9231)" rx="8" ry="8" style="stroke: #A80036; stroke-width: 2.0;"/><path d="M38.5,21 L38.5,48 M25.5,29 L51.5,29 M38.5,48 L25.5,63 M38.5,48 L51.5,63 " fill="none" filter="url(#f1scto5r6a9231)" style="stroke: #A80036; stroke-width: 2.0;"/><rect fill="#FEFECE" filter="url(#f1scto5r6a9231)" height="30.4883" style="stroke: #A80036; stroke-width: 1.5;" width="89" x="79" y="51"/><text fill="#000000" font-family="sans-serif" font-size="14" lengthAdjust="spacingAndGlyphs" textLength="75" x="86" y="71.5352">WasmFilter</text><rect fill="#FEFECE" filter="url(#f1scto5r6a9231)" height="30.4883" style="stroke: #A80036; stroke-width: 1.5;" width="84" x="182" y="51"/><text fill="#000000" font-family="sans-serif" font-size="14" lengthAdjust="spacingAndGlyphs" textLength="70" x="189" y="71.5352">wasm_sdk</text><rect fill="#FEFECE" filter="url(#f1scto5r6a9231)" height="30.4883" style="stroke: #A80036; stroke-width: 1.5;" width="75" x="333.5" y="51"/><text fill="#000000" font-family="sans-serif" font-size="14" lengthAdjust="spacingAndGlyphs" textLength="61" x="340.5" y="71.5352">host_env</text><rect fill="#FEFECE" filter="url(#f1scto5r6a9231)" height="30.4883" style="stroke: #A80036; stroke-width: 1.5;" width="307" x="422.5" y="51"/><text fill="#000000" font-family="sans-serif" font-size="14" lengthAdjust="spacingAndGlyphs" textLength="293" x="429.5" y="71.5352">Common::Wasm::Context[HTTP/TCP Filter]</text><polygon fill="#A80036" points="113.5,113.7988,123.5,117.7988,113.5,121.7988,117.5,117.7988" style="stroke: #A80036; stroke-width: 1.0;"/><line style="stroke: #A80036; stroke-width: 1.0;" x1="38.5" x2="119.5" y1="117.7988" y2="117.7988"/><text fill="#000000" font-family="sans-serif" font-size="13" lengthAdjust="spacingAndGlyphs" textLength="61" x="45.5" y="113.0566">Callbacks</text><polygon fill="#A80036" points="214,143.1094,224,147.1094,214,151.1094,218,147.1094" style="stroke: #A80036; stroke-width: 1.0;"/><line style="stroke: #A80036; stroke-width: 1.0;" x1="125.5" x2="220" y1="147.1094" y2="147.1094"/><text fill="#000000" font-family="sans-serif" font-size="13" lengthAdjust="spacingAndGlyphs" textLength="54" x="132.5" y="142.3672">getValue</text><line style="stroke: #A80036; stroke-width: 1.0;" x1="226" x2="268" y1="176.4199" y2="176.4199"/><line style="stroke: #A80036; stroke-width: 1.0;" x1="268" x2="268" y1="176.4199" y2="189.4199"/><line style="stroke: #A80036; stroke-width: 1.0;" x1="227" x2="268" y1="189.4199" y2="189.4199"/><polygon fill="#A80036" points="237,185.4199,227,189.4199,237,193.4199,233,189.4199" style="stroke: #A80036; stroke-width: 1.0;"/><text fill="#000000" font-family="sans-serif" font-size="13" lengthAdjust="spacingAndGlyphs" textLength="72" x="233" y="171.6777">getProperty</text><polygon fill="#A80036" points="361,214.7305,371,218.7305,361,222.7305,365,218.7305" style="stroke: #A80036; stroke-width: 1.0;"/><line style="stroke: #A80036; stroke-width: 1.0;" x1="226" x2="367" y1="218.7305" y2="218.7305"/><text fill="#000000" font-family="sans-serif" font-size="13" lengthAdjust="spacingAndGlyphs" textLength="123" x="233" y="213.9883">proxy_get_property</text><polygon fill="#A80036" points="566,244.041,576,248.041,566,252.041,570,248.041" style="stroke: #A80036; stroke-width: 1.0;"/><line style="stroke: #A80036; stroke-width: 1.0;" x1="373" x2="572" y1="248.041" y2="248.041"/><text fill="#000000" font-family="sans-serif" font-size="13" lengthAdjust="spacingAndGlyphs" textLength="72" x="380" y="243.2988">getProperty</text><!--MD5=[d94aa0396e7fd3b4e4b38529676d8527]
@startuml
hide footbox

actor Request
Request -> WasmFilter: Callbacks
  WasmFilter -> wasm_sdk: getValue
  wasm_sdk -> wasm_sdk: getProperty
  wasm_sdk -> host_env: proxy_get_property

  participant "Common::Wasm::Context[HTTP/TCP Filter]" as WasmHostContext
  host_env -> WasmHostContext: getProperty

@enduml

PlantUML version 1.2020.05(Fri Mar 20 05:17:32 CST 2020)
(GPL source distribution)
Java Runtime: Java(TM) SE Runtime Environment
JVM: Java HotSpot(TM) 64-Bit Server VM
Java Version: 13+33
Operating System: Mac OS X
Default Encoding: UTF-8
Language: zh
Country: CN
--></g></svg>