<?xml version="1.0" encoding="UTF-8" standalone="no"?><svg xmlns="http://www.w3.org/2000/svg" xmlns:xlink="http://www.w3.org/1999/xlink" contentScriptType="application/ecmascript" contentStyleType="text/css" height="805px" preserveAspectRatio="none" style="width:1541px;height:805px;" version="1.1" viewBox="0 0 1541 805" width="1541px" zoomAndPan="magnify"><defs><filter height="300%" id="f1mzjhsar7r61v" width="300%" x="-1" y="-1"><feGaussianBlur result="blurOut" stdDeviation="2.0"/><feColorMatrix in="blurOut" result="blurOut2" type="matrix" values="0 0 0 0 0 0 0 0 0 0 0 0 0 0 0 0 0 0 .4 0"/><feOffset dx="4.0" dy="4.0" in="blurOut2" result="blurOut3"/><feBlend in="SourceGraphic" in2="blurOut3" mode="normal"/></filter></defs><g><rect fill="#FFFFFF" filter="url(#f1mzjhsar7r61v)" height="666.2344" style="stroke: #A80036; stroke-width: 1.0;" width="10" x="289" y="117.7988"/><rect fill="#FFFFFF" filter="url(#f1mzjhsar7r61v)" height="188.5527" style="stroke: #A80036; stroke-width: 1.0;" width="10" x="294" y="538.4805"/><rect fill="#FFFFFF" filter="url(#f1mzjhsar7r61v)" height="14" style="stroke: #A80036; stroke-width: 1.0;" width="10" x="547" y="147.1094"/><rect fill="#FFFFFF" filter="url(#f1mzjhsar7r61v)" height="541.3027" style="stroke: #A80036; stroke-width: 1.0;" width="10" x="547" y="233.7305"/><rect fill="#FFFFFF" filter="url(#f1mzjhsar7r61v)" height="393.0605" style="stroke: #A80036; stroke-width: 1.0;" width="10" x="552" y="360.9727"/><rect fill="#FFFFFF" filter="url(#f1mzjhsar7r61v)" height="29.3105" style="stroke: #A80036; stroke-width: 1.0;" width="10" x="676" y="287.3516"/><rect fill="#FFFFFF" filter="url(#f1mzjhsar7r61v)" height="14" style="stroke: #A80036; stroke-width: 1.0;" width="10" x="991" y="567.791"/><rect fill="#FFFFFF" filter="url(#f1mzjhsar7r61v)" height="29.3105" style="stroke: #A80036; stroke-width: 1.0;" width="10" x="1143" y="611.1016"/><rect fill="#FFFFFF" filter="url(#f1mzjhsar7r61v)" height="75.9316" style="stroke: #000000; stroke-width: 2.0;" width="297" x="477.5" y="248.7305"/><rect fill="#FFFFFF" filter="url(#f1mzjhsar7r61v)" height="60.6211" style="stroke: #000000; stroke-width: 2.0;" width="458" x="477.5" y="380.9727"/><rect fill="#FFFFFF" filter="url(#f1mzjhsar7r61v)" height="279.4395" style="stroke: #000000; stroke-width: 2.0;" width="1314.5" x="215" y="455.5938"/><rect fill="#FFFFFF" height="232.8184" style="stroke: none; stroke-width: 1.0;" width="1314.5" x="215" y="502.2148"/><line style="stroke: #A80036; stroke-width: 1.0; stroke-dasharray: 5.0,5.0;" x1="53" x2="53" y1="86.4883" y2="793.0332"/><line style="stroke: #A80036; stroke-width: 1.0; stroke-dasharray: 5.0,5.0;" x1="294" x2="294" y1="86.4883" y2="793.0332"/><line style="stroke: #A80036; stroke-width: 1.0; stroke-dasharray: 5.0,5.0;" x1="551.5" x2="551.5" y1="86.4883" y2="793.0332"/><line style="stroke: #A80036; stroke-width: 1.0; stroke-dasharray: 5.0,5.0;" x1="680.5" x2="680.5" y1="86.4883" y2="793.0332"/><line style="stroke: #A80036; stroke-width: 1.0; stroke-dasharray: 5.0,5.0;" x1="834.5" x2="834.5" y1="86.4883" y2="793.0332"/><line style="stroke: #A80036; stroke-width: 1.0; stroke-dasharray: 5.0,5.0;" x1="995.5" x2="995.5" y1="86.4883" y2="793.0332"/><line style="stroke: #A80036; stroke-width: 1.0; stroke-dasharray: 5.0,5.0;" x1="1147.5" x2="1147.5" y1="86.4883" y2="793.0332"/><line style="stroke: #A80036; stroke-width: 1.0; stroke-dasharray: 5.0,5.0;" x1="1310.5" x2="1310.5" y1="86.4883" y2="793.0332"/><line style="stroke: #A80036; stroke-width: 1.0; stroke-dasharray: 5.0,5.0;" x1="1455.5" x2="1455.5" y1="86.4883" y2="793.0332"/><text fill="#000000" font-family="sans-serif" font-size="14" lengthAdjust="spacingAndGlyphs" textLength="84" x="8" y="83.5352">ListenerImpl</text><ellipse cx="53" cy="13" fill="#FEFECE" filter="url(#f1mzjhsar7r61v)" rx="8" ry="8" style="stroke: #A80036; stroke-width: 2.0;"/><path d="M53,21 L53,48 M40,29 L66,29 M53,48 L40,63 M53,48 L66,63 " fill="none" filter="url(#f1mzjhsar7r61v)" style="stroke: #A80036; stroke-width: 2.0;"/><rect fill="#FEFECE" filter="url(#f1mzjhsar7r61v)" height="30.4883" style="stroke: #A80036; stroke-width: 1.5;" width="134" x="225" y="51"/><text fill="#000000" font-family="sans-serif" font-size="14" lengthAdjust="spacingAndGlyphs" textLength="120" x="232" y="71.5352">ActiveTcpListener</text><rect fill="#FEFECE" filter="url(#f1mzjhsar7r61v)" height="30.4883" style="stroke: #A80036; stroke-width: 1.5;" width="125" x="487.5" y="51"/><text fill="#000000" font-family="sans-serif" font-size="14" lengthAdjust="spacingAndGlyphs" textLength="111" x="494.5" y="71.5352">ActiveTcpSocket</text><rect fill="#FEFECE" filter="url(#f1mzjhsar7r61v)" height="30.4883" style="stroke: #A80036; stroke-width: 1.5;" width="103" x="627.5" y="51"/><text fill="#000000" font-family="sans-serif" font-size="14" lengthAdjust="spacingAndGlyphs" textLength="89" x="634.5" y="71.5352">ListenerFilter</text><rect fill="#FEFECE" filter="url(#f1mzjhsar7r61v)" height="30.4883" style="stroke: #A80036; stroke-width: 1.5;" width="177" x="744.5" y="51"/><text fill="#000000" font-family="sans-serif" font-size="14" lengthAdjust="spacingAndGlyphs" textLength="163" x="751.5" y="71.5352">ConnectionHandlerImpl</text><rect fill="#FEFECE" filter="url(#f1mzjhsar7r61v)" height="30.4883" style="stroke: #A80036; stroke-width: 1.5;" width="117" x="935.5" y="51"/><text fill="#000000" font-family="sans-serif" font-size="14" lengthAdjust="spacingAndGlyphs" textLength="103" x="942.5" y="71.5352">DispatcherImpl</text><rect fill="#FEFECE" filter="url(#f1mzjhsar7r61v)" height="30.4883" style="stroke: #A80036; stroke-width: 1.5;" width="159" x="1066.5" y="51"/><text fill="#000000" font-family="sans-serif" font-size="14" lengthAdjust="spacingAndGlyphs" textLength="145" x="1073.5" y="71.5352">ActiveTcpConnection</text><rect fill="#FEFECE" filter="url(#f1mzjhsar7r61v)" height="30.4883" style="stroke: #A80036; stroke-width: 1.5;" width="139" x="1239.5" y="51"/><text fill="#000000" font-family="sans-serif" font-size="14" lengthAdjust="spacingAndGlyphs" textLength="125" x="1246.5" y="71.5352">FilterChainFactory</text><rect fill="#99FF99" filter="url(#f1mzjhsar7r61v)" height="30.4883" style="stroke: #A80036; stroke-width: 1.5;" width="123" x="1392.5" y="51"/><text fill="#000000" font-family="sans-serif" font-size="14" lengthAdjust="spacingAndGlyphs" textLength="109" x="1399.5" y="71.5352">ConnectionImpl</text><rect fill="#FFFFFF" filter="url(#f1mzjhsar7r61v)" height="666.2344" style="stroke: #A80036; stroke-width: 1.0;" width="10" x="289" y="117.7988"/><rect fill="#FFFFFF" filter="url(#f1mzjhsar7r61v)" height="188.5527" style="stroke: #A80036; stroke-width: 1.0;" width="10" x="294" y="538.4805"/><rect fill="#FFFFFF" filter="url(#f1mzjhsar7r61v)" height="14" style="stroke: #A80036; stroke-width: 1.0;" width="10" x="547" y="147.1094"/><rect fill="#FFFFFF" filter="url(#f1mzjhsar7r61v)" height="541.3027" style="stroke: #A80036; stroke-width: 1.0;" width="10" x="547" y="233.7305"/><rect fill="#FFFFFF" filter="url(#f1mzjhsar7r61v)" height="393.0605" style="stroke: #A80036; stroke-width: 1.0;" width="10" x="552" y="360.9727"/><rect fill="#FFFFFF" filter="url(#f1mzjhsar7r61v)" height="29.3105" style="stroke: #A80036; stroke-width: 1.0;" width="10" x="676" y="287.3516"/><rect fill="#FFFFFF" filter="url(#f1mzjhsar7r61v)" height="14" style="stroke: #A80036; stroke-width: 1.0;" width="10" x="991" y="567.791"/><rect fill="#FFFFFF" filter="url(#f1mzjhsar7r61v)" height="29.3105" style="stroke: #A80036; stroke-width: 1.0;" width="10" x="1143" y="611.1016"/><polygon fill="#0000FF" points="277,113.7988,287,117.7988,277,121.7988,281,117.7988" style="stroke: #0000FF; stroke-width: 1.0;"/><line style="stroke: #0000FF; stroke-width: 1.0;" x1="53" x2="283" y1="117.7988" y2="117.7988"/><text fill="#000000" font-family="sans-serif" font-size="13" lengthAdjust="spacingAndGlyphs" textLength="204" x="60" y="113.0566">onAcceptWorker(socket, ?, false)</text><polygon fill="#A80036" points="535,143.1094,545,147.1094,535,151.1094,539,147.1094" style="stroke: #A80036; stroke-width: 1.0;"/><line style="stroke: #A80036; stroke-width: 1.0;" x1="299" x2="541" y1="147.1094" y2="147.1094"/><text fill="#000000" font-family="sans-serif" font-size="13" lengthAdjust="spacingAndGlyphs" textLength="154" x="306" y="142.3672">new(this:Listner, socket)</text><polygon fill="#A80036" points="310,157.1094,300,161.1094,310,165.1094,306,161.1094" style="stroke: #A80036; stroke-width: 1.0;"/><line style="stroke: #A80036; stroke-width: 1.0; stroke-dasharray: 2.0,2.0;" x1="304" x2="551" y1="161.1094" y2="161.1094"/><polygon fill="#A80036" points="64,186.4199,54,190.4199,64,194.4199,60,190.4199" style="stroke: #A80036; stroke-width: 1.0;"/><line style="stroke: #A80036; stroke-width: 1.0;" x1="58" x2="288" y1="190.4199" y2="190.4199"/><text fill="#000000" font-family="sans-serif" font-size="13" lengthAdjust="spacingAndGlyphs" textLength="212" x="70" y="185.6777">createListenerFilterChain(*socket)</text><polygon fill="#A80036" points="277,200.4199,287,204.4199,277,208.4199,281,204.4199" style="stroke: #A80036; stroke-width: 1.0;"/><line style="stroke: #A80036; stroke-width: 1.0;" x1="53" x2="283" y1="204.4199" y2="204.4199"/><polygon fill="#A80036" points="535,229.7305,545,233.7305,535,237.7305,539,233.7305" style="stroke: #A80036; stroke-width: 1.0;"/><line style="stroke: #A80036; stroke-width: 1.0;" x1="299" x2="541" y1="233.7305" y2="233.7305"/><text fill="#000000" font-family="sans-serif" font-size="13" lengthAdjust="spacingAndGlyphs" textLength="156" x="306" y="228.9883">continueFilterChain(true)</text><path d="M477.5,248.7305 L551.5,248.7305 L551.5,255.7305 L541.5,265.7305 L477.5,265.7305 L477.5,248.7305 " fill="#EEEEEE" style="stroke: #000000; stroke-width: 1.0;"/><rect fill="none" height="75.9316" style="stroke: #000000; stroke-width: 2.0;" width="297" x="477.5" y="248.7305"/><text fill="#000000" font-family="sans-serif" font-size="13" font-weight="bold" lengthAdjust="spacingAndGlyphs" textLength="29" x="492.5" y="262.2988">loop</text><text fill="#000000" font-family="sans-serif" font-size="11" font-weight="bold" lengthAdjust="spacingAndGlyphs" textLength="203" x="566.5" y="261.3652">[N filters &amp;&amp; status ne StopIteration]</text><polygon fill="#A80036" points="664,283.3516,674,287.3516,664,291.3516,668,287.3516" style="stroke: #A80036; stroke-width: 1.0;"/><line style="stroke: #A80036; stroke-width: 1.0;" x1="557" x2="670" y1="287.3516" y2="287.3516"/><text fill="#000000" font-family="sans-serif" font-size="13" lengthAdjust="spacingAndGlyphs" textLength="59" x="564" y="282.6094">onAccept</text><polygon fill="#A80036" points="568,312.6621,558,316.6621,568,320.6621,564,316.6621" style="stroke: #A80036; stroke-width: 1.0;"/><line style="stroke: #A80036; stroke-width: 1.0; stroke-dasharray: 2.0,2.0;" x1="562" x2="680" y1="316.6621" y2="316.6621"/><text fill="#000000" font-family="sans-serif" font-size="13" lengthAdjust="spacingAndGlyphs" textLength="39" x="574" y="311.9199">status</text><line style="stroke: #A80036; stroke-width: 1.0;" x1="557" x2="604" y1="347.9727" y2="347.9727"/><line style="stroke: #A80036; stroke-width: 1.0;" x1="604" x2="604" y1="347.9727" y2="360.9727"/><line style="stroke: #A80036; stroke-width: 1.0;" x1="563" x2="604" y1="360.9727" y2="360.9727"/><polygon fill="#A80036" points="573,356.9727,563,360.9727,573,364.9727,569,360.9727" style="stroke: #A80036; stroke-width: 1.0;"/><text fill="#000000" font-family="sans-serif" font-size="13" lengthAdjust="spacingAndGlyphs" textLength="105" x="569" y="343.2305">newConnection()</text><path d="M477.5,380.9727 L539.5,380.9727 L539.5,387.9727 L529.5,397.9727 L477.5,397.9727 L477.5,380.9727 " fill="#EEEEEE" style="stroke: #000000; stroke-width: 1.0;"/><rect fill="none" height="60.6211" style="stroke: #000000; stroke-width: 2.0;" width="458" x="477.5" y="380.9727"/><text fill="#000000" font-family="sans-serif" font-size="13" font-weight="bold" lengthAdjust="spacingAndGlyphs" textLength="17" x="492.5" y="394.541">alt</text><text fill="#000000" font-family="sans-serif" font-size="11" font-weight="bold" lengthAdjust="spacingAndGlyphs" textLength="129" x="554.5" y="393.6074">[localAddressRestored]</text><polygon fill="#A80036" points="823,415.5938,833,419.5938,823,423.5938,827,419.5938" style="stroke: #A80036; stroke-width: 1.0;"/><line style="stroke: #A80036; stroke-width: 1.0;" x1="562" x2="829" y1="419.5938" y2="419.5938"/><text fill="#000000" font-family="sans-serif" font-size="13" lengthAdjust="spacingAndGlyphs" textLength="210" x="569" y="414.8516">findActiveTcpListenerByAddress()</text><polygon fill="#A80036" points="573,429.5938,563,433.5938,573,437.5938,569,433.5938" style="stroke: #A80036; stroke-width: 1.0;"/><line style="stroke: #A80036; stroke-width: 1.0;" x1="567" x2="834" y1="433.5938" y2="433.5938"/><path d="M215,455.5938 L277,455.5938 L277,462.5938 L267,472.5938 L215,472.5938 L215,455.5938 " fill="#EEEEEE" style="stroke: #000000; stroke-width: 1.0;"/><rect fill="none" height="279.4395" style="stroke: #000000; stroke-width: 2.0;" width="1314.5" x="215" y="455.5938"/><text fill="#000000" font-family="sans-serif" font-size="13" font-weight="bold" lengthAdjust="spacingAndGlyphs" textLength="17" x="230" y="469.1621">alt</text><text fill="#000000" font-family="sans-serif" font-size="11" font-weight="bold" lengthAdjust="spacingAndGlyphs" textLength="101" x="292" y="468.2285">[has new_listener]</text><polygon fill="#0000FF" points="310,490.2148,300,494.2148,310,498.2148,306,494.2148" style="stroke: #0000FF; stroke-width: 1.0;"/><line style="stroke: #0000FF; stroke-width: 1.0;" x1="304" x2="551" y1="494.2148" y2="494.2148"/><text fill="#000000" font-family="sans-serif" font-size="13" lengthAdjust="spacingAndGlyphs" textLength="224" x="316" y="489.4727">onAcceptWorker(socket, false, true)</text><line style="stroke: #000000; stroke-width: 1.0; stroke-dasharray: 2.0,2.0;" x1="215" x2="1529.5" y1="503.2148" y2="503.2148"/><text fill="#000000" font-family="sans-serif" font-size="11" font-weight="bold" lengthAdjust="spacingAndGlyphs" textLength="119" x="220" y="513.8496">[has no new_listener]</text><polygon fill="#A80036" points="315,534.4805,305,538.4805,315,542.4805,311,538.4805" style="stroke: #A80036; stroke-width: 1.0;"/><line style="stroke: #A80036; stroke-width: 1.0;" x1="309" x2="551" y1="538.4805" y2="538.4805"/><text fill="#000000" font-family="sans-serif" font-size="13" lengthAdjust="spacingAndGlyphs" textLength="97" x="321" y="533.7383">newConnection</text><polygon fill="#A80036" points="979,563.791,989,567.791,979,571.791,983,567.791" style="stroke: #A80036; stroke-width: 1.0;"/><line style="stroke: #A80036; stroke-width: 1.0;" x1="304" x2="985" y1="567.791" y2="567.791"/><text fill="#000000" font-family="sans-serif" font-size="13" lengthAdjust="spacingAndGlyphs" textLength="398" x="311" y="563.0488">createServerConnection(socket, transport_socket, time_source)</text><polygon fill="#A80036" points="315,577.791,305,581.791,315,585.791,311,581.791" style="stroke: #A80036; stroke-width: 1.0;"/><line style="stroke: #A80036; stroke-width: 1.0; stroke-dasharray: 2.0,2.0;" x1="309" x2="995" y1="581.791" y2="581.791"/><polygon fill="#A80036" points="1131,607.1016,1141,611.1016,1131,615.1016,1135,611.1016" style="stroke: #A80036; stroke-width: 1.0;"/><line style="stroke: #A80036; stroke-width: 1.0;" x1="304" x2="1137" y1="611.1016" y2="611.1016"/><text fill="#000000" font-family="sans-serif" font-size="13" lengthAdjust="spacingAndGlyphs" textLength="25" x="311" y="606.3594">new</text><polygon fill="#A80036" points="315,636.4121,305,640.4121,315,644.4121,311,640.4121" style="stroke: #A80036; stroke-width: 1.0;"/><line style="stroke: #A80036; stroke-width: 1.0; stroke-dasharray: 2.0,2.0;" x1="309" x2="1147" y1="640.4121" y2="640.4121"/><text fill="#000000" font-family="sans-serif" font-size="13" lengthAdjust="spacingAndGlyphs" textLength="70" x="321" y="635.6699">connection</text><polygon fill="#A80036" points="1299,665.7227,1309,669.7227,1299,673.7227,1303,669.7227" style="stroke: #A80036; stroke-width: 1.0;"/><line style="stroke: #A80036; stroke-width: 1.0;" x1="304" x2="1305" y1="669.7227" y2="669.7227"/><text fill="#000000" font-family="sans-serif" font-size="13" lengthAdjust="spacingAndGlyphs" textLength="332" x="311" y="664.9805">createNetworkFilterChain(connection, filterFactories)</text><polygon fill="#A80036" points="315,679.7227,305,683.7227,315,687.7227,311,683.7227" style="stroke: #A80036; stroke-width: 1.0;"/><line style="stroke: #A80036; stroke-width: 1.0;" x1="309" x2="1310" y1="683.7227" y2="683.7227"/><polygon fill="#A80036" points="1444,709.0332,1454,713.0332,1444,717.0332,1448,713.0332" style="stroke: #A80036; stroke-width: 1.0;"/><line style="stroke: #A80036; stroke-width: 1.0;" x1="304" x2="1450" y1="713.0332" y2="713.0332"/><text fill="#000000" font-family="sans-serif" font-size="13" lengthAdjust="spacingAndGlyphs" textLength="234" x="311" y="708.291">addConnectionCallbacks(connection)</text><polygon fill="#A80036" points="310,723.0332,300,727.0332,310,731.0332,306,727.0332" style="stroke: #A80036; stroke-width: 1.0;"/><line style="stroke: #A80036; stroke-width: 1.0;" x1="304" x2="1455" y1="727.0332" y2="727.0332"/><line style="stroke: #A80036; stroke-width: 1.0; stroke-dasharray: 2.0,2.0;" x1="562" x2="604" y1="753.0332" y2="753.0332"/><line style="stroke: #A80036; stroke-width: 1.0; stroke-dasharray: 2.0,2.0;" x1="604" x2="604" y1="753.0332" y2="766.0332"/><line style="stroke: #A80036; stroke-width: 1.0; stroke-dasharray: 2.0,2.0;" x1="557" x2="604" y1="766.0332" y2="766.0332"/><polygon fill="#A80036" points="567,762.0332,557,766.0332,567,770.0332,563,766.0332" style="stroke: #A80036; stroke-width: 1.0;"/><polygon fill="#A80036" points="310,771.0332,300,775.0332,310,779.0332,306,775.0332" style="stroke: #A80036; stroke-width: 1.0;"/><line style="stroke: #A80036; stroke-width: 1.0; stroke-dasharray: 2.0,2.0;" x1="304" x2="551" y1="775.0332" y2="775.0332"/><!--MD5=[9cda118464f19fa4575444b03ef1b09b]
@startuml
hide footbox

actor ListenerImpl

ListenerImpl -[#0000FF]> ActiveTcpListener: onAcceptWorker(socket, ?, false)
activate ActiveTcpListener

  ActiveTcpListener -> ActiveTcpSocket : new(this:Listner, socket)
  activate ActiveTcpSocket
  return

  ActiveTcpListener -> ListenerImpl : createListenerFilterChain(*socket)
  ListenerImpl -> ActiveTcpListener

  ActiveTcpListener -> ActiveTcpSocket: continueFilterChain(true)
  activate ActiveTcpSocket

    loop N filters && status ne StopIteration
      ActiveTcpSocket -> ListenerFilter : onAccept
      activate ListenerFilter
      return status
    end

    ActiveTcpSocket -> ActiveTcpSocket: newConnection()
    activate ActiveTcpSocket
      alt localAddressRestored
      ActiveTcpSocket -> ConnectionHandlerImpl : findActiveTcpListenerByAddress()
      ConnectionHandlerImpl -> ActiveTcpSocket
      end

      alt has new_listener
        ActiveTcpSocket -[#0000FF]> ActiveTcpListener: onAcceptWorker(socket, false, true)
      else has no new_listener
        ActiveTcpSocket -> ActiveTcpListener: newConnection
        activate ActiveTcpListener
          ActiveTcpListener -> DispatcherImpl: createServerConnection(socket, transport_socket, time_source)
          activate DispatcherImpl
          return

          ActiveTcpListener -> ActiveTcpConnection: new
          activate ActiveTcpConnection
          return connection

          ActiveTcpListener -> FilterChainFactory: createNetworkFilterChain(connection, filterFactories)
          FilterChainFactory -> ActiveTcpListener

          participant ConnectionImpl #99FF99
          ActiveTcpListener -> ConnectionImpl: addConnectionCallbacks(connection)
          ConnectionImpl -> ActiveTcpListener

        deactivate
      end

  return

return

@enduml

PlantUML version 1.2020.05(Fri Mar 20 05:17:32 CST 2020)
(GPL source distribution)
Java Runtime: Java(TM) SE Runtime Environment
JVM: Java HotSpot(TM) 64-Bit Server VM
Java Version: 13+33
Operating System: Mac OS X
Default Encoding: UTF-8
Language: zh
Country: CN
--></g></svg>